<svg xmlns="http://www.w3.org/2000/svg" data-name="layer 1" viewBox="0 0 1000 600"><defs><clipPath id="a"><rect width="1000" height="600" fill="none"/></clipPath></defs><g clip-path="url(#a)"><path fill="#3251b4" d="M238.51,341.32c47.38,55.46,99.1,88.63,107.25,82.38,7.84-6-10.35-86-54.47-144.65s-81.63-73.74-102.57-52.34C163.53,252.48,190.79,285.46,238.51,341.32Z"/><path fill="#608fdf" d="M232,344.92c47.38,55.46,99.1,88.63,107.24,82.37,7.85-6-10.35-86-54.47-144.64s-81.63-73.75-102.56-52.34C157.05,256.08,184.32,289.06,232,344.92Z"/><path fill="#b3cbf9" d="M224.84,304.23c-9.55.58-16.41,6.54-16.56,4.2s7.54-8.71,17.09-9.29c6.33-.38,11.91.12,15,1.18-5.15-6-10.07-11.78-14.66-17.18-1.79.95-8.71.54-16.25,1-8.81.53-15.21,5-15.32,3.28s7.06-6.5,15.87-7c6-.36,11.2,0,14,.74-6.44-7.59-12.15-14.41-16.8-20.15-2.34.31-6.67.1-11.29.38-6.91.41-11.89,4.55-12,2.93s5.48-6,12.39-6.45a42.08,42.08,0,0,1,8.59.27c-11.17-14-14.59-20.25-4-13a81.87,81.87,0,0,1,9.36,7.75,51,51,0,0,1,1.33-9c1.66-7.18,6.76-12.23,8.22-11.82s-3.25,4.88-4.91,12.06c-1,4.34-1.6,8.5-2.23,11,5.34,5.24,11.27,11.76,17.56,19.16a63,63,0,0,1,1.92-14.29c2.12-9.16,7.84-15.81,9.4-15.38s-3.73,6.33-5.85,15.49c-1.66,7.2-2.56,14-3.63,16.36,4.31,5.13,8.77,10.64,13.32,16.42a61.56,61.56,0,0,1,1.81-14.17c2.3-9.93,9.57-16.83,11.7-16.24s-4.63,6.7-6.92,16.62c-1.73,7.48-2.54,14.61-3.74,17.42,4.13,5.31,8.32,10.81,12.52,16.41a49,49,0,0,1,1.44-13.65c2.23-9.64,10.58-16,13.15-15.28s-5.18,6.32-7.41,16c-1.8,7.77-2.36,15.21-3.85,17.43,4.79,6.46,9.58,13,14.27,19.54-.69-3.56-.33-9.53,1.19-16.08,2.3-10,11.07-16.48,13.78-15.73s-5.43,6.51-7.74,16.46c-2.16,9.36-2.55,18.27-4.84,18.68,4.4,6.15,8.7,12.24,12.85,18.17a48.36,48.36,0,0,1,1.4-14.65c2.31-10,11.07-16.48,13.78-15.73s-5.43,6.5-7.73,16.46c-2,8.59-2.48,16.79-4.32,18.4,3.76,5.41,7.37,10.64,10.78,15.61-.41-2.87.28-9.15,1.92-16.23,2.18-9.44,7.95-16.34,9.51-15.91s-3.77,6.55-6,16c-2,8.8-3,17-4.37,17.74,4.15,6.08,8,11.73,11.38,16.79a37.39,37.39,0,0,1,.38-12.51c1.28-7.14,4-12.56,4.71-12.41s-1.59,5.67-2.88,12.81c-1.19,6.61-1.09,12.3-1.63,13,1.61,2.39,3.13,4.67,4.53,6.76-1.53-2.16-3.14-4.37-4.8-6.63-1.19.17-6.09-1.13-12-1.46-6.8-.36-12.36.71-12.33-.06s5.6-2.3,12.4-1.93A32.2,32.2,0,0,1,319.6,397C316,392,312,386.88,307.89,381.57c-2.3.76-9.06.44-16.38.88-9.08.55-15.69,5-15.8,3.31s7.29-6.51,16.37-7.06c5.9-.36,11.09-.08,14.05.62-3.62-4.6-7.38-9.31-11.24-14.08-.61,2.46-9,1.19-18.08,1.74-9.58.58-16.37,8.07-16.56,5.08s7.42-11,17-11.57c6.49-.39,12.2.38,15.28,1.84-5-6.1-10.08-12.29-15.25-18.48-1.11,2.12-9.19,1-18,1.49-9.58.58-16.37,8.07-16.56,5.09s7.43-11,17-11.57c6.09-.37,11.5.29,14.69,1.58-5-6-10.05-11.95-15-17.81-2.15,1.28-9.24.45-16.89.91-9.27.56-15.85,7.68-16,4.84s7.2-10.43,16.47-11a40.28,40.28,0,0,1,12.86,1c-4.48-5.26-8.89-10.42-13.17-15.43C241.12,304.46,233.33,303.72,224.84,304.23Z"/><path fill="#3251b4" d="M745.85,402.45C714.61,468.37,705.5,529.13,714.53,534c8.7,4.7,74.27-44.62,109.72-108.86s33.92-104.66,5.82-115C796.25,297.69,777.3,336.06,745.85,402.45Z"/><path fill="#608fdf" d="M739.92,398c-31.24,65.92-40.35,126.68-31.32,131.56,8.7,4.7,74.27-44.62,109.72-108.86s33.91-104.65,5.82-115C790.32,293.25,771.37,331.62,739.92,398Z"/><path fill="#b3cbf9" d="M774.1,374.81c-4.43-8.48-12.68-12.31-10.6-13.4s11,3.32,15.46,11.8c2.94,5.62,4.76,10.92,5,14.17,3.39-7.15,6.64-14,9.69-20.41-1.59-1.23-4.06-7.72-7.56-14.41-4.09-7.82-10.78-11.84-9.25-12.65s8.81,3.79,12.9,11.62c2.77,5.29,4.61,10.2,5.05,13.07,4.29-9,8.18-17,11.52-23.57-1.24-2-2.82-6-5-10.14-3.21-6.14-9-9-7.59-9.75s7.75,2.53,11,8.67a41.8,41.8,0,0,1,3.27,7.95c8.23-15.93,12.51-21.6,10.21-8.93A80.66,80.66,0,0,1,815,340.54a51.34,51.34,0,0,1,8.72-2.45c7.24-1.42,13.93,1.17,14.16,2.67s-5.79-1-13,.45c-4.37.86-8.41,2-11,2.48-2.61,7-6.13,15.09-10.31,23.86a62.84,62.84,0,0,1,13.83-4.09c9.22-1.81,17.63.68,17.87,2.28s-7.3-.8-16.52,1c-7.25,1.42-13.81,3.37-16.42,3.37-2.91,6-6.12,12.36-9.53,18.87a61.53,61.53,0,0,1,13.67-4.14c10-2,19.27,1.85,19.6,4s-8-1.48-18,.48c-7.54,1.48-14.38,3.66-17.43,3.71-3.15,5.95-6.46,12-9.85,18.14a49.45,49.45,0,0,1,13-4.27c9.71-1.9,18.92,3.12,19.32,5.76s-7.88-2.15-17.59-.24c-7.83,1.53-14.84,4.07-17.48,3.61-3.94,7-8,14.07-12,21,3-2.08,8.57-4.19,15.16-5.48,10-2,19.57,3.36,20,6.14s-8.16-2.3-18.18-.33c-9.43,1.86-17.72,5.14-19,3.22-3.81,6.53-7.61,12.95-11.32,19.16a48,48,0,0,1,13.94-4.71c10-2,19.56,3.36,20,6.14s-8.16-2.3-18.19-.33c-8.65,1.7-16.33,4.6-18.55,3.59-3.4,5.64-6.7,11.08-9.84,16.22,2.45-1.56,8.46-3.49,15.6-4.89,9.51-1.87,18.16.58,18.4,2.18s-7.52-.77-17,1.1c-8.87,1.74-16.76,4.23-18,3.27-3.85,6.27-7.44,12.07-10.67,17.25A37.08,37.08,0,0,1,740,494.84c7-1.75,13.09-1.49,13.24-.78s-5.82.87-12.86,2.61c-6.52,1.62-11.67,4-12.5,3.82-1.53,2.44-3,4.76-4.33,6.9,1.35-2.28,2.72-4.65,4.1-7.09-.65-1-1.46-6-3.59-11.55-2.44-6.36-5.69-11-5-11.28s4.38,4.17,6.83,10.53a32.23,32.23,0,0,1,2.34,11.21c3-5.35,6.12-11,9.27-17-1.63-1.8-4.11-8.1-7.5-14.59-4.22-8.07-11-12.27-9.48-13.07s8.92,4,13.14,12.06c2.73,5.23,4.6,10.08,5.17,13.07,2.73-5.18,5.48-10.54,8.26-16-2.5.44-4.75-7.69-9-15.8-4.44-8.5-14.06-11.64-11.41-13s13.07,2.28,17.51,10.79c3,5.75,4.65,11.28,4.57,14.7,3.54-7,7.1-14.24,10.63-21.48-2.39-.15-4.63-8-8.72-15.81-4.44-8.5-14.06-11.64-11.41-13s13.07,2.28,17.51,10.79c2.83,5.4,4.45,10.61,4.57,14.05,3.41-7,6.79-14.06,10.1-21-2.05-1.44-4.18-8.24-7.73-15-4.31-8.23-13.49-11.33-11-12.65s12.46,2.3,16.77,10.54a40,40,0,0,1,4.32,12.15c3-6.24,5.88-12.38,8.7-18.33C780.55,389.76,778,382.34,774.1,374.81Z"/><path fill="#3251b4" d="M257,457.8c49.34,4.78,91.72-6.11,93.59-14.58,1.8-8.15-41.73-44.55-90.59-53.11s-75.87,4.6-78.43,29.5C178.45,449.6,207.28,453,257,457.8Z"/><path fill="#608fdf" d="M252.43,456.27c49.33,4.79,91.72-6.11,93.59-14.57,1.8-8.16-41.73-44.55-90.59-53.11s-75.86,4.59-78.43,29.5C173.91,448.07,202.75,451.45,252.43,456.27Z"/><path fill="#b3cbf9" d="M231.43,436.56c-5,5.95-6.31,13.5-7.37,12.21s.51-9.57,5.53-15.52c3.33-3.95,6.61-6.93,8.76-8.12l-15.28-1.5c-.58,1.61-4.57,5.44-8.53,10.14-4.63,5.5-6.29,11.89-7.07,10.94s1.17-8,5.8-13.47a43.87,43.87,0,0,1,8-7.79c-6.72-.68-12.73-1.34-17.69-2-1.16,1.56-3.63,4-6.06,6.87-3.63,4.3-4.65,9.67-5.38,8.78s.49-6.78,4.12-11.09a38,38,0,0,1,4.85-4.89c-12-1.69-16.52-3.34-7.62-5.3a48,48,0,0,1,8.4-.94,38.07,38.07,0,0,1-3-6.05c-2.09-5.21-1.4-11.18-.42-11.8s.25,4.78,2.35,10c1.26,3.14,2.68,5.94,3.39,7.8a165.2,165.2,0,0,1,17.7,1,45.4,45.4,0,0,1-4.92-9.55c-2.67-6.63-2.31-13.91-1.27-14.57s.6,5.92,3.27,12.55c2.1,5.22,4.44,9.74,4.85,11.77,4.52.48,9.29,1.1,14.21,1.83a44,44,0,0,1-4.93-9.41c-2.9-7.19-1.78-15.53-.36-16.43s.26,6.66,3.15,13.85c2.18,5.42,4.72,10.09,5.23,12.45,4.5.7,9.12,1.47,13.78,2.3A34.6,34.6,0,0,1,250,411.7c-2.81-7-.87-15.64.85-16.73s-.21,6.77,2.6,13.75c2.26,5.63,5.07,10.34,5.18,12.53,5.34,1,10.72,2,16,3.11-1.87-1.69-4.17-5.42-6.08-10.17-2.9-7.21-.8-16.21,1-17.36s-.27,7,2.63,14.24c2.73,6.78,6.24,12.25,5.16,13.84,5,1,9.92,2.09,14.68,3.14a33.87,33.87,0,0,1-5.36-9.45c-2.9-7.21-.8-16.21,1-17.36s-.26,7,2.64,14.24c2.5,6.22,5.66,11.34,5.32,13.36,4.34,1,8.52,1.93,12.48,2.86-1.43-1.45-3.68-5.55-5.74-10.69-2.75-6.84-2.46-14.29-1.42-14.95s.66,6.07,3.42,12.91c2.56,6.38,5.48,11.78,5,13,4.83,1.14,9.3,2.21,13.3,3.19a24.91,24.91,0,0,1-5-7.59c-2.29-5-3.06-9.74-2.61-10.07s1.5,4.27,3.78,9.23c2.12,4.59,4.55,7.88,4.54,8.6l5.33,1.31q-2.62-.56-5.43-1.08c-.58.8-3.82,2.91-7.22,6.2-3.9,3.78-6.51,7.68-6.82,7.21s2.13-4.65,6-8.42a25.5,25.5,0,0,1,7.19-5.15c-4.08-.76-8.4-1.49-12.9-2.18-1,1.8-4.82,5.59-8.66,10.15-4.78,5.67-6.54,12.19-7.32,11.24s1.29-8.12,6.06-13.79a48.64,48.64,0,0,1,8-7.89c-3.92-.58-8-1.14-12.09-1.68.7,1.81-4.44,6-9.23,11.66-5,6-5.64,14.38-7,12.73s-.51-10.83,4.53-16.81c3.4-4,6.88-7,9.19-7.9-5.3-.67-10.71-1.31-16.15-1.91.28,1.9-4.66,6-9.28,11.45-5,6-5.64,14.38-7,12.74s-.51-10.84,4.53-16.81c3.2-3.8,6.45-6.6,8.75-7.71-5.27-.58-10.54-1.12-15.74-1.64-.65,2-4.9,5.69-8.92,10.46-4.87,5.78-5.52,13.84-6.81,12.28s-.4-10.38,4.48-16.16a35.19,35.19,0,0,1,7.51-7c-4.67-.46-9.27-.91-13.72-1.33C240.49,427.12,235.89,431.26,231.43,436.56Z"/><path fill="#3251b4" d="M363.34,342.26c29.67,37,44.13,75.78,38.89,81.24-5.05,5.25-54.91-12.28-87.11-47.1s-36.83-62.46-19.86-76.19C315.69,283.69,333.46,305,363.34,342.26Z"/><path fill="#b3cbf9" d="M367.77,338.37c29.68,37,44.13,75.78,38.89,81.24-5.05,5.26-54.9-12.27-87.1-47.1s-36.84-62.46-19.87-76.19C320.12,279.8,337.89,301.13,367.77,338.37Z"/><path fill="#dfeafe" d="M403.53 417.38s-3.73-3.45-9.74-9.16C397.28 411.76 400.55 414.86 403.53 417.38zM342.13 330.92c1.72-6.78 6.59-11.34 5.08-11.58s-6.76 4.89-8.49 11.67c-1.14 4.5-1.59 8.51-1.33 10.78-3.22-4-6.31-7.86-9.2-11.44.87-1.22 1.58-6.19 2.94-11.54 1.59-6.26 5.42-10.58 4.3-10.76s-5.24 4.68-6.83 10.93a38.6 38.6 0 00-1.48 10c-4.07-5-7.74-9.49-10.85-13.14.54-1.65 1-4.75 1.84-8 1.25-4.91 4.66-8.23 3.61-8.4s-4.73 3.57-6 8.48a33.38 33.38 0 00-1 6.15c-7.62-8.77-11.22-11.57-7.94-3.57a49.61 49.61 0 003.76 7.12 31.47 31.47 0 00-6.05.44c-4.94.78-9 4.13-8.91 5.2s3.65-2 8.59-2.83c3-.46 5.8-.65 7.55-1 2.68 4.11 6.12 8.71 10.08 13.62a39.32 39.32 0 00-9.63.57c-6.3 1-11.46 4.69-11.4 5.83s4.68-2.3 11-3.29c4.94-.78 9.52-1 11.22-1.67 2.76 3.37 5.74 6.87 8.89 10.45a38.4 38.4 0 00-9.54.48c-6.83 1.08-12.37 5.88-12.29 7.43s5-2.92 11.87-4c5.14-.81 9.93-1 11.93-1.68 2.9 3.26 5.91 6.56 9 9.87a30.38 30.38 0 00-9.14.26c-6.63 1-12 6.64-11.86 8.52s4.87-3.35 11.5-4.39c5.34-.84 10.29-.82 12-1.76 3.55 3.79 7.18 7.58 10.79 11.3-2.23-.7-6.2-.77-10.7-.06-6.85 1.07-12.35 7-12.24 8.94s5-3.51 11.87-4.59c6.43-1 12.33-.78 12.92-2.39 3.41 3.49 6.79 6.9 10.09 10.2a29.83 29.83 0 00-9.79.17c-6.85 1.08-12.36 7-12.25 8.94s5-3.5 11.88-4.58c5.9-.93 11.34-.82 12.66-2 3 3 5.93 5.87 8.71 8.58-1.82-.46-6-.32-10.91.45-6.49 1-11.82 4.75-11.75 5.89s4.82-2.33 11.31-3.35c6.06-.95 11.58-1.17 12.24-2.12 3.4 3.31 6.56 6.36 9.4 9.09a22.26 22.26 0 00-8.25-.45c-4.86.52-8.79 2.14-8.79 2.66s3.94-.82 8.79-1.33c4.51-.47 8.22-.08 8.73-.42l3.8 3.61q-1.8-1.82-3.68-3.8c.29-.84.12-4.41.74-8.65.72-4.87 2.2-8.78 1.69-8.81s-2.29 3.88-3 8.75a24.22 24.22 0 000 8.13c-2.72-2.89-5.55-6-8.44-9.24.82-1.6 1.56-6.44 2.88-11.64 1.64-6.46 5.5-10.92 4.39-11.09s-5.29 4.83-6.93 11.29a43.59 43.59 0 00-1.57 10.06c-2.51-2.84-5.06-5.8-7.64-8.82 1.69-.3 2-6.33 3.68-12.81 1.73-6.81 7.59-11.23 5.66-11.54s-8.24 4.68-10 11.48c-1.17 4.61-1.47 8.73-.95 11-3.3-3.9-6.63-7.9-10-11.94 1.55-.67 1.92-6.5 3.51-12.76 1.73-6.8 7.59-11.23 5.66-11.53s-8.25 4.68-10 11.48c-1.1 4.33-1.43 8.23-1 10.58-3.22-3.92-6.42-7.85-9.56-11.74 1.15-1.46 1.6-6.57 3-12 1.67-6.59 7.26-10.89 5.43-11.18s-7.85 4.55-9.53 11.14a31.43 31.43 0 00-1.13 9.24l-8.26-10.28C340 342.56 340.6 337 342.13 330.92z"/><path fill="#3251b4" d="M372.85,217c52.85,32.37,88.27,72.15,84.52,80.28-3.61,7.83-71.64,4.92-126.52-24.1s-73.32-59.31-59.33-81.06C288.35,165.88,319.63,184.34,372.85,217Z"/><path fill="#b3cbf9" d="M374.72,210.71C427.57,243.09,463,282.87,459.24,291c-3.61,7.83-71.64,4.92-126.53-24.09s-73.31-59.32-59.33-81.07C290.22,159.65,321.5,178.1,374.72,210.71Z"/><path fill="#dfeafe" d="M454.45 289.51s-6.09-2.68-16-7.19C444.32 285.19 449.69 287.63 454.45 289.51zM340.46 211c-1.09-8.42 2.63-15.39.71-15.14s-5.85 8-4.76 16.43c.72 5.6 2 10.38 3.41 12.91-5.73-3.52-11.23-6.88-16.37-10 .48-1.71-1-7.7-1.84-14.35-1-7.78 1.57-14.1.16-13.91s-4.13 7.22-3.12 15c.68 5.26 1.8 9.78 2.89 12.1-7.22-4.39-13.71-8.27-19.14-11.4-.13-2.09-1-5.84-1.53-9.92-.79-6.1 1.76-11.12.42-10.95s-4 5.76-3.22 11.87a39.86 39.86 0 001.63 7.46c-13.24-7.48-18.86-9.45-11.2-1.36a71.39 71.39 0 007.83 6.91 39.58 39.58 0 00-7.06 2.61c-5.57 2.62-8.84 7.89-8.27 9.1s3.43-3.63 9-6.25c3.37-1.58 6.65-2.77 8.61-3.73 5.14 3.81 11.41 7.93 18.45 12.22a49.2 49.2 0 00-11.3 4c-7.1 3.34-11.58 9.41-11 10.7s4.54-4.28 11.64-7.62c5.58-2.62 10.95-4.51 12.71-5.82 4.87 2.93 10.09 5.93 15.53 9a48 48 0 00-11.23 3.87c-7.7 3.62-12.12 11.09-11.29 12.85s4.69-5.12 12.38-8.74c5.8-2.72 11.47-4.59 13.55-6.09 5 2.75 10.15 5.52 15.39 8.27a38.5 38.5 0 00-10.86 3.47c-7.47 3.51-11.27 11.84-10.27 14s4.29-5.56 11.76-9.07c6-2.83 12-4.52 13.55-6.18 6 3.13 12.15 6.25 18.22 9.28-3 0-7.81 1.27-12.88 3.65-7.72 3.63-11.59 12.34-10.54 14.59s4.4-5.8 12.12-9.43c7.26-3.41 14.44-5.19 14.4-7.26 5.72 2.85 11.38 5.62 16.87 8.28a37.33 37.33 0 00-11.68 3.6c-7.72 3.63-11.59 12.34-10.54 14.58s4.4-5.8 12.12-9.42c6.66-3.13 13.25-4.89 14.26-6.76 5 2.41 9.86 4.72 14.45 6.88-2.4.11-7.39 1.73-12.88 4.31-7.32 3.44-12 9.6-11.38 10.89s4.71-4.36 12-7.8c6.83-3.2 13.36-5.37 13.72-6.7 5.62 2.64 10.83 5.07 15.51 7.22a28.74 28.74 0 00-10.12 2.36c-5.59 2.28-9.56 5.53-9.32 6.12s4.35-2.31 9.95-4.59c5.19-2.11 9.82-2.94 10.28-3.53l6.24 2.86c-2-1-4.07-2-6.18-3.11-.05-1.07-1.91-5.13-3.14-10.25-1.41-5.87-1.45-10.9-2.07-10.75s-.95 5.27.46 11.14a30 30 0 003.82 9.38c-4.62-2.38-9.45-5-14.44-7.73.23-2.13-1.13-8-2-14.45-1-8 1.52-14.51.11-14.33s-4.1 7.42-3.06 15.45a51.23 51.23 0 002.8 12.16q-6.51-3.61-13.29-7.53c1.9-.93-.5-8-1.54-16.07-1.09-8.46 3.89-15.61 1.43-15.29s-7.73 8.27-6.63 16.73c.74 5.72 2.3 10.59 4 13-5.78-3.35-11.65-6.81-17.52-10.32 1.54-1.31-.72-8.18-1.73-15.95-1.09-8.46 3.89-15.6 1.43-15.28s-7.72 8.26-6.63 16.72c.7 5.38 2.12 10 3.69 12.57-5.69-3.4-11.36-6.84-16.94-10.23.69-2.09-1.15-8.14-2-14.89-1.06-8.19 3.65-15.09 1.32-14.79s-7.31 8-6.25 16.17a38.23 38.23 0 002.93 11.06l-14.7-9C343.31 225.21 341.43 218.52 340.46 211z"/><path fill="#3251b4" d="M388.83,126.92C406.7,182.6,407.58,233.24,399.91,237c-7.38,3.59-54.18-39.53-75.57-94s-15.94-87.85,7.39-95.45C359.82,38.41,370.83,70.85,388.83,126.92Z"/><path fill="#b3cbf9" d="M394,123.45c17.87,55.68,18.75,106.32,11.08,110.05-7.38,3.59-54.18-39.53-75.56-94s-15.95-87.86,7.38-95.45C365,34.94,376,67.38,394,123.45Z"/><path fill="#dfeafe" d="M402.56 229.52s-2.7-5.64-7-14.91C398 220.24 400.32 225.27 402.56 229.52zM369.33 103.05c4.4-6.87 11.33-9.75 9.8-10.73s-9.09 2.37-13.48 9.24c-2.92 4.55-4.92 8.88-5.49 11.56-1.94-6-3.79-11.83-5.54-17.24 1.39-1 4-6.25 7.49-11.67 4.05-6.34 9.77-9.44 8.65-10.16s-7.38 2.84-11.43 9.18A45.61 45.61 0 00354 93.88c-2.46-7.59-4.71-14.35-6.67-19.92 1.2-1.62 2.87-4.91 5-8.23 3.19-5 8.09-7.14 7-7.81s-6.4 1.82-9.59 6.8a38.92 38.92 0 00-3.41 6.47c-4.86-13.48-7.66-18.32-7.16-7.75a66.76 66.76 0 001.35 9.81 36.65 36.65 0 00-6.65-2.33c-5.58-1.43-11.16.48-11.49 1.72s4.68-.6 10.26.82c3.37.87 6.45 2 8.44 2.44 1.33 5.9 3.28 12.71 5.68 20.12a45.25 45.25 0 00-10.53-3.87c-7.12-1.82-14 0-14.4 1.28s5.87-.42 13 1.4c5.59 1.43 10.59 3.27 12.65 3.36 1.68 5.1 3.56 10.45 5.58 16a43.91 43.91 0 00-10.39-3.91c-7.72-2-15.46.87-15.95 2.67s6.49-1 14.2 1c5.82 1.49 11 3.53 13.42 3.67 1.88 5 3.86 10.19 5.92 15.37a35 35 0 00-9.89-4c-7.49-1.91-15.32 1.93-15.91 4.1s6.47-1.51 14 .41c6 1.54 11.34 3.89 13.47 3.6 2.39 5.95 4.84 11.92 7.32 17.82-2.13-1.83-6.35-3.77-11.44-5.07-7.74-2-15.85 2.1-16.48 4.39s6.7-1.62 14.44.36c7.28 1.86 13.5 4.87 14.74 3.33 2.34 5.54 4.68 11 7 16.25a34.32 34.32 0 00-10.55-4.38c-7.74-2-15.85 2.11-16.48 4.4s6.7-1.62 14.44.36c6.68 1.7 12.46 4.37 14.33 3.61 2.1 4.79 4.15 9.41 6.1 13.77-1.78-1.37-6.34-3.18-11.85-4.59-7.34-1.88-14.44-.15-14.8 1.17s6-.37 13.37 1.5c6.85 1.75 12.84 4.09 13.91 3.33 2.39 5.33 4.63 10.26 6.65 14.66a26.49 26.49 0 00-8.67-4.36c-5.4-1.69-10.22-1.68-10.42-1.1s4.53.92 9.92 2.61c5 1.57 8.82 3.75 9.51 3.59.95 2.08 1.86 4 2.7 5.87-.82-1.93-1.66-4-2.5-6 .62-.81 1.78-4.93 4-9.44 2.6-5.17 5.66-8.9 5.12-9.17s-3.91 3.31-6.5 8.49a29.24 29.24 0 00-3 9.21c-1.84-4.54-3.7-9.36-5.57-14.39 1.48-1.43 4.09-6.57 7.46-11.83 4.18-6.53 10-9.78 8.87-10.49s-7.48 3-11.66 9.53a51.29 51.29 0 00-5.47 10.65c-1.61-4.39-3.24-8.92-4.86-13.55 1.92.46 4.56-6.21 8.76-12.77 4.41-6.89 12.35-9.15 10.4-10.4s-10.59 1.44-15 8.33c-3 4.66-4.86 9.19-5.15 12-2.07-6-4.14-12-6.18-18.16 1.91 0 4.5-6.45 8.55-12.78 4.41-6.89 12.36-9.16 10.4-10.4s-10.59 1.43-15 8.32c-2.8 4.39-4.62 8.64-5.08 11.49-2-5.94-3.91-11.88-5.81-17.75 1.77-1.12 4.18-6.68 7.7-12.18 4.27-6.67 11.87-8.92 10-10.1s-10.11 1.48-14.38 8.15a37.49 37.49 0 00-4.7 9.91c-1.7-5.27-3.36-10.45-5-15.48C362.66 115.21 365.42 109.16 369.33 103.05z"/><path fill="#3251b4" d="M445.44,82c-21.62,33.84-49.09,55.88-55,53.11-5.73-2.67-5.73-47.6,13.42-82.91s40.33-46.43,56.37-36.41C479.5,27.9,467.21,48,445.44,82Z"/><path fill="#b3cbf9" d="M446.79,78.42c-21.63,33.84-49.1,55.88-55,53.11-5.73-2.67-5.73-47.6,13.41-82.91S445.5,2.19,461.54,12.21C480.85,24.29,468.56,44.34,446.79,78.42Z"/><path fill="#dfeafe" d="M392.66 128.41s1.74-3.94 4.67-10.31C395.45 121.86 393.86 125.33 392.66 128.41zM445.51 55.73c6-.43 11.13 2.28 10.89 1s-5.92-4.15-11.94-3.73a29.67 29.67 0 00-9.16 1.8c2.35-3.67 4.59-7.19 6.68-10.48 1.25.38 5.5-.38 10.25-.71 5.55-.4 10.17 1.54 10 .59s-5.31-3-10.86-2.59a33.59 33.59 0 00-8.6 1.48c2.93-4.62 5.52-8.78 7.59-12.26 1.5 0 4.16-.46 7.08-.67 4.35-.3 8 1.56 7.87.67S461 28 456.68 28.28a29.17 29.17 0 00-5.3.81c5-8.49 6.21-12.14.63-7.36a41.5 41.5 0 00-4.72 4.94 28.14 28.14 0 00-2.09-4.77c-2.05-3.78-5.94-6.13-6.79-5.8s2.71 2.4 4.76 6.18c1.24 2.29 2.2 4.5 2.95 5.84a141.24 141.24 0 00-8.21 11.78 34.2 34.2 0 00-3.22-7.63c-2.61-4.82-7.11-8-8-7.64s3.22 3.16 5.83 8c2.05 3.79 3.57 7.41 4.57 8.62-1.95 3.12-3.95 6.47-6 10A33.2 33.2 0 00428 43.62c-2.83-5.22-8.33-8.42-9.57-7.93s3.82 3.29 6.65 8.51c2.14 3.93 3.65 7.75 4.79 9.18-1.82 3.21-3.65 6.53-5.46 9.9A26.14 26.14 0 00421.56 56c-2.75-5.07-8.84-7.88-10.34-7.3s4.12 3 6.87 8.11c2.22 4.09 3.61 8.09 4.86 9.19-2.07 3.88-4.12 7.82-6.11 11.73-.08-2-1.15-5.21-3-8.65-2.84-5.24-9.21-8.12-10.79-7.5s4.3 3.12 7.14 8.36c2.67 4.92 4.17 9.74 5.65 9.79C414 83.38 412.14 87 410.4 90.57a25.73 25.73 0 00-2.94-7.86c-2.84-5.24-9.22-8.11-10.8-7.49s4.3 3.12 7.14 8.36c2.45 4.52 3.92 8.94 5.29 9.68-1.58 3.23-3.08 6.35-4.5 9.32-.15-1.59-1.47-5-3.49-8.68-2.69-5-7.25-8.27-8.16-7.92s3.27 3.28 6 8.24c2.52 4.63 4.27 9 5.24 9.32-1.73 3.63-3.31 7-4.71 10a19.2 19.2 0 00-2-6.78c-1.81-3.78-4.27-6.52-4.69-6.38s1.8 3 3.6 6.74c1.68 3.51 2.42 6.61 2.85 6.93l-1.86 4q1-1.95 2.05-4c.76 0 3.62-1.08 7.26-1.71 4.17-.73 7.78-.58 7.65-1s-3.81-.81-8-.08a20.64 20.64 0 00-6.62 2.19c1.57-3 3.29-6.08 5.11-9.28 1.54.23 5.7-.47 10.31-.79 5.73-.41 10.47 1.51 10.29.57s-5.45-3-11.18-2.57a37.56 37.56 0 00-8.64 1.42c1.59-2.78 3.27-5.63 5-8.53.73 1.3 5.74 0 11.49-.45 6-.42 11.33 3.13 11 1.49s-6.17-5.41-12.21-5c-4.09.29-7.53 1.15-9.24 2.18 2.23-3.71 4.53-7.47 6.87-11.24 1 1.07 5.85-.18 11.4-.57 6-.43 11.32 3.12 11 1.48s-6.17-5.4-12.21-5a24.68 24.68 0 00-8.91 2c2.27-3.64 4.56-7.28 6.83-10.85 1.52.53 5.8-.47 10.63-.81 5.84-.41 10.94 3 10.65 1.39s-5.95-5.12-11.79-4.71a27.53 27.53 0 00-7.86 1.56l6-9.42C435.41 57.11 440.16 56.1 445.51 55.73z"/><path fill="#3251b4" d="M639.65,315.64c-19.71,58.76-21.3,112-13.2,115.82,7.79,3.68,58.06-42.25,81.48-99.75s18.08-92.55-6.61-100.24C671.6,222.22,659.49,256.46,639.65,315.64Z"/><path fill="#b3cbf9" d="M634.21,312.06c-19.7,58.76-21.29,112-13.2,115.82,7.8,3.68,58.07-42.26,81.49-99.75s18.07-92.55-6.62-100.24C666.16,218.64,654.05,252.88,634.21,312.06Z"/><path fill="#dfeafe" d="M623.73 423.67s2.94-6 7.62-15.77C628.72 413.85 626.17 419.17 623.73 423.67zM660.67 290.29c-4.58-7.16-11.91-10.1-10.27-11.15s9.62 2.38 14.2 9.54c3 4.75 5.1 9.26 5.67 12.08 2.14-6.38 4.19-12.49 6.12-18.19-1.47-1-4.19-6.53-7.81-12.18-4.22-6.61-10.26-9.79-9.06-10.56s7.8 2.88 12 9.49c2.86 4.48 4.9 8.66 5.56 11.13 2.71-8 5.19-15.14 7.34-21-1.25-1.69-3-5.13-5.19-8.59-3.32-5.18-8.5-7.4-7.37-8.12s6.78 1.84 10.1 7a40.26 40.26 0 013.54 6.76c5.34-14.23 8.38-19.35 7.71-8.23a71.74 71.74 0 01-1.56 10.33 39.58 39.58 0 017.09-2.54c6-1.57 11.84.36 12.19 1.66s-5-.58-10.92 1c-3.59.95-6.88 2.15-9 2.66-1.49 6.23-3.64 13.41-6.29 21.23a49.1 49.1 0 0111.24-4.2c7.58-2 14.91-.23 15.28 1.15s-6.23-.36-13.82 1.64c-6 1.58-11.29 3.58-13.48 3.7-1.85 5.38-3.92 11-6.14 16.85a47.85 47.85 0 0111.1-4.24c8.22-2.17 16.41.71 16.9 2.59s-6.88-.91-15.1 1.26c-6.2 1.64-11.73 3.85-14.3 4-2.06 5.31-4.23 10.75-6.48 16.23a37.88 37.88 0 0110.55-4.32c8-2.11 16.25 1.82 16.85 4.1s-6.86-1.5-14.84.61c-6.43 1.7-12.09 4.23-14.35 4-2.61 6.28-5.3 12.59-8 18.82 2.28-1.95 6.79-4 12.21-5.47 8.25-2.19 16.81 2 17.45 4.4s-7.1-1.61-15.35.57c-7.75 2.05-14.39 5.29-15.69 3.68-2.56 5.85-5.11 11.62-7.62 17.18a37.3 37.3 0 0111.27-4.74c8.24-2.18 16.81 2 17.44 4.4s-7.1-1.61-15.34.57c-7.11 1.88-13.29 4.76-15.27 4-2.29 5.06-4.52 9.94-6.65 14.56 1.91-1.47 6.77-3.43 12.64-5 7.82-2.07 15.35-.34 15.71 1s-6.41-.32-14.23 1.75c-7.29 1.93-13.68 4.46-14.81 3.68-2.61 5.63-5 10.84-7.25 15.49a28.92 28.92 0 019.26-4.69c5.76-1.84 10.88-1.9 11.08-1.29s-4.82 1-10.57 2.87c-5.33 1.71-9.42 4.05-10.15 3.9l-2.94 6.2c.9-2 1.82-4.17 2.74-6.35-.65-.85-1.84-5.17-4.18-9.88-2.69-5.4-5.89-9.28-5.32-9.57s4.11 3.43 6.8 8.83a29.8 29.8 0 013.1 9.65c2-4.8 4-9.89 6.1-15.2-1.55-1.49-4.26-6.85-7.77-12.34-4.36-6.81-10.49-10.15-9.29-10.91s7.91 3.05 12.27 9.87a51 51 0 015.66 11.12q2.67-7 5.35-14.31c-2 .51-4.77-6.46-9.14-13.31-4.6-7.18-13-9.46-10.92-10.79s11.23 1.37 15.83 8.56c3.11 4.86 5 9.59 5.32 12.56 2.27-6.28 4.55-12.71 6.8-19.17-2 0-4.7-6.73-8.93-13.33-4.59-7.18-13-9.46-10.91-10.8s11.23 1.38 15.83 8.56c2.92 4.57 4.8 9 5.25 12 2.16-6.27 4.31-12.54 6.4-18.73-1.87-1.15-4.35-7-8-12.71-4.45-7-12.49-9.22-10.51-10.49s10.73 1.43 15.18 8.38a38 38 0 014.85 10.36c1.88-5.56 3.71-11 5.49-16.33C667.6 303 664.74 296.66 660.67 290.29z"/><path fill="#3251b4" d="M616.46,145.91c-48.08,33.29-79.61,72.93-75.79,80.55,3.67,7.34,67.05,1.63,117.15-28.53s66.14-60,52.26-80.21C693.36,93.36,664.88,112.38,616.46,145.91Z"/><path fill="#b3cbf9" d="M614.48,140c-48.08,33.29-79.61,72.92-75.79,80.55,3.67,7.34,67,1.63,117.15-28.53s66.14-60,52.26-80.22C691.38,87.46,662.9,106.49,614.48,140Z"/><path fill="#dfeafe" d="M543.1 218.94s5.58-2.83 14.62-7.57C552.39 214.37 547.47 216.93 543.1 218.94zM646.46 138.84c.7-8.12-3-14.63-1.24-14.47s5.77 7.41 5.08 15.53c-.47 5.4-1.51 10-2.69 12.52 5.21-3.62 10.21-7.08 14.89-10.3-.51-1.62.62-7.41 1.17-13.83.64-7.49-2-13.43-.69-13.32s4.13 6.74 3.49 14.24a45.47 45.47 0 01-2.23 11.71c6.57-4.51 12.47-8.51 17.42-11.74 0-2 .72-5.63 1.05-9.56.5-5.89-2.07-10.58-.82-10.48s4 5.35 3.47 11.23a38.14 38.14 0 01-1.24 7.22c12.07-7.73 17.24-9.87 10.4-1.79a66.48 66.48 0 01-7 7 36.1 36.1 0 016.69 2.2c5.3 2.27 8.56 7.18 8.07 8.36s-3.34-3.33-8.64-5.6c-3.2-1.36-6.32-2.36-8.18-3.2-4.65 3.87-10.34 8.09-16.75 12.5a44.81 44.81 0 0110.7 3.35c6.76 2.89 11.17 8.51 10.65 9.77s-4.4-3.9-11.16-6.79c-5.31-2.27-10.39-3.85-12.08-5-4.44 3-9.19 6.12-14.15 9.26a44 44 0 0110.63 3.24c7.32 3.13 11.73 10.1 11 11.82s-4.57-4.71-11.89-7.84c-5.52-2.36-10.88-3.9-12.88-5.25-4.56 2.84-9.26 5.72-14 8.58A34.72 34.72 0 01645.74 171c7.11 3 11 10.85 10.13 12.93s-4.22-5.13-11.33-8.17c-5.73-2.45-11.36-3.82-12.88-5.35-5.51 3.27-11.1 6.52-16.65 9.69 2.8-.16 7.33.87 12.16 2.94 7.35 3.14 11.29 11.32 10.4 13.52s-4.33-5.37-11.68-8.51c-6.9-2.95-13.67-4.36-13.71-6.34-5.23 3-10.4 5.88-15.43 8.66a34.34 34.34 0 0111 2.94c7.34 3.15 11.29 11.33 10.39 13.52s-4.33-5.36-11.67-8.5c-6.33-2.71-12.55-4.12-13.56-5.86-4.59 2.52-9 4.94-13.23 7.21 2.25 0 7 1.34 12.19 3.57 7 3 11.55 8.68 11 9.94s-4.57-4-11.53-6.95c-6.49-2.78-12.67-4.57-13.06-5.83-5.14 2.78-9.92 5.32-14.2 7.59a26.1 26.1 0 019.54 1.82c5.3 1.94 9.13 4.89 8.93 5.46s-4.15-2-9.46-4c-4.92-1.8-9.28-2.4-9.73-2.94l-5.72 3c1.84-1 3.73-2.12 5.65-3.25 0-1 1.59-5 2.54-10 1.09-5.69.93-10.51 1.52-10.39s1.09 5 0 10.69a29.52 29.52 0 01-3.2 9.15c4.21-2.49 8.62-5.18 13.17-8-.3-2 .75-7.7 1.28-13.92.66-7.73-2-13.85-.64-13.73s4.11 6.94 3.45 14.67a50.92 50.92 0 01-2.15 11.77c3.95-2.5 8-5.1 12.11-7.79-1.81-.81.16-7.7.82-15.46.7-8.15-4.23-14.78-1.92-14.59s7.52 7.59 6.83 15.74c-.47 5.52-1.74 10.25-3.23 12.67 5.27-3.45 10.61-7 16-10.64-1.49-1.19.36-7.86 1-15.35.7-8.15-4.23-14.78-1.92-14.58s7.52 7.58 6.83 15.74c-.44 5.18-1.59 9.66-3 12.2 5.18-3.51 10.34-7 15.41-10.54-.72-2 .76-7.84 1.32-14.35.67-7.89-4-14.3-1.8-14.11s7.13 7.33 6.45 15.22a37.44 37.44 0 01-2.31 10.72c4.56-3.14 9-6.24 13.37-9.25C644.35 152.55 645.85 146.07 646.46 138.84z"/><path fill="#3251b4" d="M598.88,75.84c-3.45,40,4.92,74.22,11.33,75.64,6.17,1.37,33.52-34.27,39.83-73.94s-3.72-61.39-22.55-63.2C604.82,12.15,602.36,35.54,598.88,75.84Z"/><path fill="#b3cbf9" d="M600,72.15c-3.45,40,4.92,74.22,11.32,75.64,6.17,1.37,33.53-34.27,39.84-73.94s-3.73-61.39-22.56-63.2C606,8.46,603.49,31.85,600,72.15Z"/><path fill="#dfeafe" d="M612.52 144.76s1-4.19 2.57-11C614.29 137.86 613.44 141.58 612.52 144.76zM614.85 54.92c-4.52-4-10.22-5-9.25-5.83s7.22.31 11.74 4.31a29.79 29.79 0 016.17 7c.37-4.34.73-8.5 1.08-12.38-1.22-.46-4.13-3.65-7.69-6.8-4.17-3.7-9-5-8.3-5.61s6 .86 10.2 4.55a33.74 33.74 0 015.92 6.42c.49-5.46 1-10.33 1.44-14.36-1.18-.92-3-2.9-5.2-4.83-3.27-2.9-7.33-3.66-6.66-4.27s5.12.33 8.39 3.23a28.76 28.76 0 013.72 3.87c1.23-9.76 2.47-13.42 4-6.23a41.52 41.52 0 01.73 6.8 27.37 27.37 0 014.57-2.51c3.93-1.75 8.44-1.26 8.91-.47s-3.61.25-7.54 2c-2.37 1.05-4.48 2.23-5.89 2.83A140.86 140.86 0 01630.51 47a34.52 34.52 0 017.2-4.09c5-2.23 10.5-2 11-1.18s-4.47.55-9.48 2.79c-3.93 1.75-7.34 3.7-8.87 4.05-.35 3.67-.81 7.54-1.34 11.53a32.85 32.85 0 017.09-4.1c5.43-2.42 11.74-1.6 12.42-.47s-5 .29-10.46 2.71c-4.09 1.82-7.61 3.93-9.39 4.37-.51 3.65-1.08 7.4-1.69 11.18a26.19 26.19 0 016.7-4.09c5.26-2.35 11.81-.87 12.64.51s-5.12-.1-10.38 2.25c-4.25 1.89-7.8 4.22-9.45 4.33-.73 4.34-1.5 8.71-2.3 13 1.27-1.53 4.09-3.44 7.66-5 5.45-2.43 12.25-.82 13.13.63s-5.31-.15-10.75 2.28C629.13 90 625 92.88 623.8 92c-.76 4-1.54 8-2.32 11.92a25.75 25.75 0 017.12-4.44c5.44-2.43 12.25-.82 13.12.63s-5.3-.14-10.75 2.28c-4.69 2.1-8.55 4.71-10.08 4.46-.72 3.52-1.43 6.92-2.11 10.14 1.09-1.18 4.18-3 8.05-4.77 5.16-2.3 10.79-2.14 11.3-1.31s-4.59.6-9.75 2.91c-4.81 2.14-8.89 4.56-9.82 4.2-.85 3.93-1.64 7.56-2.37 10.81a19.15 19.15 0 015.72-4.16c3.74-1.9 7.35-2.58 7.6-2.21s-3.22 1.25-7 3.16c-3.46 1.76-5.94 3.77-6.48 3.76-.34 1.53-.67 3-1 4.33.28-1.42.54-2.89.8-4.4-.61-.46-2.21-3.07-4.71-5.79-2.87-3.11-5.82-5.19-5.47-5.44s3.52 1.67 6.39 4.79a20.65 20.65 0 013.91 5.77q.84-5 1.6-10.48c-1.36-.75-4.24-3.84-7.7-6.9-4.29-3.81-9.23-5.17-8.51-5.81s6.14 1 10.43 4.77a37 37 0 016 6.39c.43-3.18.84-6.46 1.23-9.81-1.36.58-4.52-3.53-8.84-7.35-4.53-4-10.88-4.42-9.64-5.53s8.18-.53 12.72 3.48c3.07 2.72 5.27 5.5 6 7.36.49-4.3 1-8.69 1.39-13.1-1.43.25-4.52-3.71-8.69-7.4-4.53-4-10.88-4.41-9.64-5.53s8.18-.52 12.72 3.49a24.68 24.68 0 015.85 7c.42-4.27.81-8.55 1.19-12.77-1.53-.5-4.32-3.9-7.94-7.11-4.39-3.89-10.48-4.32-9.3-5.38s7.84-.44 12.23 3.45a27.51 27.51 0 015.28 6c.33-3.79.66-7.52 1-11.13C622 62.16 618.86 58.48 614.85 54.92z"/><path fill="#fea815" d="M400.39,233.09a35,35,0,0,0-2.6-17.37c2.93,3.53,6.22,6.9-.88-5.13a172.23,172.23,0,0,0-22.69-27.12c1.08-2.92,1.3-8.82-2.22-17.46-4.93-12.07-8.12-14.83-9.69-13.63-2,1.51,1.89,7.16,5.09,16.56a100.57,100.57,0,0,1,3.06,10.94,158.79,158.79,0,0,0-20.8-16.37c1.81-2.93,2.49-12-5.25-23.92-8.59-13.23-13.18-15.33-15-13.09-2.22,2.81,3.78,8.31,9.64,18.89a120.14,120.14,0,0,1,7.35,16.08,119,119,0,0,0-23.7-11.3c.31-3.93-1.47-11.65-8.94-21.14-9.83-12.49-14.28-14.36-15.51-12.13-1.54,2.79,4.73,7.89,11.69,17.92a131.34,131.34,0,0,1,8.48,14,94.7,94.7,0,0,0-25.68-3.92s-8.21,1.23-3.71,3.61c2.62,1.4,7-.75,20.44,1.58a78.49,78.49,0,0,1,10.84,2.78c-.43,2.1.53,8.43-.64,19.64-1.19,11.48-4.28,18.25-1.45,20.27,2.25,1.61,5.35-1.61,7.89-16.31,2-11.57-.58-19.34-3-22.62a132.67,132.67,0,0,1,22.43,10.66c-1.69.7.65,8.59-.87,24.54-1.31,13.79-5.3,21.78-1.43,24.39,3.08,2.09,7.17-1.6,10.21-19.19,2.47-14.28-1.51-24-4.86-27.88a149.54,149.54,0,0,1,22.58,17.25s0,0,0,.06c-1.77,0,.47,6.14-1.22,17.5-1.43,9.67-5.51,18-1.67,17.28,6-1.1,8.68-2,10-11.79,1.17-8.5-.69-15.11-3-19a139.53,139.53,0,0,1,19.14,23.94c-1,.6,1.51,9.4-.89,19.94-2.15,9.48-7.05,11.84-3.16,15.1C393.64,249.21,399.27,246.14,400.39,233.09Z"/><path fill="#101e41" d="M379.63,57.6h243a16,16,0,0,1,16,16V524.95a16,16,0,0,1-16,16h-243a16,16,0,0,1-16-16V73.56A16,16,0,0,1,379.63,57.6Z"/><path fill="#fff" d="M517.17 80.41H472.9a3.64 3.64 0 01-3.64-3.64h0a3.64 3.64 0 013.64-3.64h44.27a3.64 3.64 0 013.64 3.64h0A3.64 3.64 0 01517.17 80.41zM533 76.77a3.64 3.64 0 11-3.64-3.64A3.64 3.64 0 01533 76.77zM545.26 76.77a3.64 3.64 0 11-3.63-3.64A3.64 3.64 0 01545.26 76.77zM387.84 93.07H614.42a8.15 8.15 0 018.15 8.15V514.83a8.14 8.14 0 01-8.14 8.14H387.84a8.15 8.15 0 01-8.15-8.15V101.22A8.15 8.15 0 01387.84 93.07z"/><path fill="#ffc8b7" d="M162.52,271.25c.69,12.89-2.45,19.07-10.18,20.39-9.45,1.61-18.23-2.73-21.28-14.71s2-23.6,11.3-26S161.87,258.91,162.52,271.25Z"/><path fill="#ffc8b7" d="M136.69,281.27s1.69,14.52,0,21.5,5.46,10.89,9.7,10.44,11.79-2.9,9.15-7.8S150.26,295,151,288.81,136.69,281.27,136.69,281.27Z"/><path fill="#ffc8b7" d="M165.49 334.89c-8.18-8.29-29.67-25.66-20.92-33.61s24.45 9.56 26.62 14.45 9.18 11 10.5 12.55 31.18 2.56 33.41 1.49 6.36-7.46 8.38-6.73 2.47 2.53 1.27 3.93 5.25 2.76 7.35.68 9.23 0 7.74 3.71-12.16 6.91-18.66 5.62-35.14 6.35-39.64 5.82S168.86 338.29 165.49 334.89zM125.12 487.1c-.74 1.31-14.3 29.76-17.47 36.35s-8.44 14.86-8.44 14.86-4.82 2.76-3.16 6 7.49 7.73 10.77 9.59 9.33 3.62 9.19 1.25c-.14-2.19-5.38-8-7.84-9.74s19.34-37.59 27.15-44.72S125.12 487.1 125.12 487.1z"/><path fill="#101e41" d="M98.13,544.48a5.22,5.22,0,0,1,.44-5.24l.64-.93s-3,.44-3.73,1.59-4.31,5.31-.76,7.54,14.47,10.18,17.62,12.4,8.56,2.32,7.78-1.27-5.63-7.27-6.71-7.84c0,0,3,4.61,1.09,5.29s-13.12-7.59-14.69-9A13.15,13.15,0,0,1,98.13,544.48Z"/><path fill="#ffc8b7" d="M159,491.55c.25,1.55,7.81,33.45,9.54,40.85S171.34,550,171.34,550s-2.11,5.38,1.35,6.94,11.12,1.37,15,.75,9.92-3.16,8.26-5-9.57-3-12.7-2.78-8.84-43.09-7.16-54S159,491.55,159,491.55Z"/><path fill="#101e41" d="M174.48,555.66a5.41,5.41,0,0,1-3.06-4.53l-.08-1.17s-2.14,2.3-2,3.72,0,7.11,4.3,6.61S192,559.1,196,558.85s8.45-3.71,5.48-6.11-9.3-2.22-10.55-2c0,0,5.47,1.75,4.34,3.57s-15.6,2.4-17.81,2.26A13.44,13.44,0,0,1,174.48,555.66Z"/><path fill="#608fdf" d="M138,301.45a38.62,38.62,0,0,0-10.41.91c-3.87,1-9.18,10.6-9.46,12.79-.34,2.63,3.18,19.65,4.18,35.23S123.66,370,118,385.59s-6.72,35.7-5.21,48.78,1,73.42-15.09,87.5,15.91,16.09,21.94,13.64,18.1-8.68,23-7.17,9.24,6.5,18.1,8.06,27,3.72,31.49,0,9.24-6.74,4.53-12.77-29.91-113.91-29.85-121.07-4.42-21.12-4.26-26.78,1.18-14.71,4.26-21.5,7.85-9.76,7-18.27-3-13.41-7.92-18.44-8.34-16.34-9.83-17.91S138,301.45,138,301.45Z"/><path fill="#fff" d="M302.64,346.28,193,413.85a7.3,7.3,0,0,1-10-2.39L149.8,357.62a7.29,7.29,0,0,1,2.38-10L261.8,280a7.3,7.3,0,0,1,10,2.39L305,336.24A7.29,7.29,0,0,1,302.64,346.28Z"/><rect width="143.37" height="15.7" x="147.59" y="325.88" fill="#23399b" transform="rotate(-31.65 219.25 333.713)"/><rect width="61.63" height="4.76" x="227.1" y="326.65" fill="#23399b" transform="matrix(.85 -.52 .52 .85 -134.29 184.25)"/><rect width="61.63" height="4.76" x="232.76" y="335.85" fill="#23399b" transform="rotate(-31.65 263.56 338.212)"/><rect width="61.63" height="4.76" x="238.43" y="345.04" fill="#23399b" transform="rotate(-31.5 272.395 350.27)"/><path fill="#23399b" d="M193.58,372.61l-9.76,6a11.46,11.46,0,0,0,12,19.52l9.76-6a11.46,11.46,0,0,0-12-19.51Z"/><path fill="#ffc8b7" d="M120.74,348.22c-2.39-11.39-11-37.63.62-39.57s15.37,21.28,14.54,26.56,1.77,14.22,2,16.24,24.82,19,27.28,19.35,9.39-2.83,10.69-1.12.71,3.47-1.06,4,2.91,5.16,5.81,4.55,7.74,5,4.49,7.31-14-.78-18.73-5.38-33-13.7-36.47-16.59S121.72,352.91,120.74,348.22Z"/><path fill="#23399b" d="M139.89,270.18s17.35,1,21.63-3.52,7.54-10.86,3.52-15.36-15.17-16.83-31.35-8.28S117.52,261.18,118.52,272s2.77,19.09,10.06,22.61,12.07-1.26,11.31-4S132.6,276.46,139.89,270.18Z"/><path fill="#23399b" d="M154.91,332a7.81,7.81,0,0,0,.45-2.61,6.65,6.65,0,0,0-1.87-4.89,4.79,4.79,0,0,0,.67-2.43A4.87,4.87,0,0,0,151.9,318a6,6,0,0,0-4.46-10.07h-.07a6.88,6.88,0,0,0,.57-2.71c0-2.91-1.75-5.33-4.07-5.86a4.13,4.13,0,0,0,.55-2c0-2.59-2.4-4.68-5.36-4.68s-5.37,2.09-5.37,4.68,2.21,4.48,5,4.64a6.74,6.74,0,0,0-.82,3.24c0,3,1.86,5.44,4.27,5.88a6,6,0,0,0,3,8.44,4.82,4.82,0,0,0,2.75,7.2,7.93,7.93,0,0,0-.47,2.68c0,2.47,1.06,4.56,2.55,5.39a7,7,0,0,0-.76,3.22c0,3.37,2.21,6.1,4.93,6.1s4.94-2.73,4.94-6.1C159.1,335,157.28,332.45,154.91,332Z"/><path fill="#fea815" d="M156.57,332.65c.5,1.21-1.35,1.72-3.49,2.45s-3.72,1.53-4.26.19c-.61-1.54,1.35-1.72,3.49-2.45S155.81,330.8,156.57,332.65Z"/><path fill="#3251b4" d="M250,403.87c21.51,1.25,50.4-.28,68.34-13.36a2.5,2.5,0,0,1,3.11.08c17.37,14,46.27,17.1,67.7,17a3,3,0,0,1,2.82,3.06c1.89,52-13.69,134.67-73.44,152.6a7.14,7.14,0,0,1-4.43-.12c-57.77-20.69-71.27-102.27-67-156.36A3,3,0,0,1,250,403.87Z"/><path fill="#fff" d="M260,417.09c23.88.25,43.19-3.53,57.58-11.26a4.06,4.06,0,0,1,4.06.11c13,7.88,30.48,12.59,52,14,1.65.12,3.32.21,5,.28a1.42,1.42,0,0,1,1.26,1.5c-.3,17.34-2.65,45.17-13,72.08C356,522.34,339.61,540.53,318.09,548a4.09,4.09,0,0,1-2.92-.09,68.79,68.79,0,0,1-27-20.1c-.68-.81-1.35-1.64-2-2.49-7-9-12.74-20.15-17.22-33.2-7.37-21.48-11-47.76-10.31-73.59A1.4,1.4,0,0,1,260,417.09Z"/><path fill="#fb660a" d="M351.37 451.12l-6.06-6.06a5 5 0 00-7.14 0l-24.49 24.48a5 5 0 01-7.14 0l-6.24-6.25a5.06 5.06 0 00-7.15 0l-6.06 6.06a5.06 5.06 0 000 7.15l23 23 0 0 0 0 41.22-41.26A5.05 5.05 0 00351.37 451.12zM283.62 532.81c-10.46 24.92-35.09 37.34-55 27.74S201 523 211.46 498.06s35.09-37.33 55-27.74S294.08 507.9 283.62 532.81z"/><path fill="#fea815" d="M280.1,531.12c-9.44,22.48-31.67,33.68-49.65,25s-24.91-33.9-15.47-56.38,31.67-33.69,49.65-25S289.53,508.63,280.1,531.12Z"/><path fill="#fb660a" d="M278.25,530.23C269.1,552,247.92,563.08,231,554.92s-23.29-32.47-14.13-54.28,30.32-32.85,47.28-24.68S287.4,508.42,278.25,530.23Z"/><path fill="#fea815" d="M249.22,527.56a4,4,0,0,0-.72-3.82,20.35,20.35,0,0,0-5.46-4.25,62,62,0,0,1-6.74-4.57,18.79,18.79,0,0,1-4.08-4.34,10.15,10.15,0,0,1-1.65-4.73,14.7,14.7,0,0,1,.8-5.66,12.17,12.17,0,0,1,7.19-7.76,19.52,19.52,0,0,1,12.39-.67l2.67-8.32,6.13,2L257,493.88q6.87,3.22,9.65,8.09a12.61,12.61,0,0,1,1,10.49l-13-4.16a4.78,4.78,0,0,0-.56-4.11,6.6,6.6,0,0,0-3.83-2.88,6.43,6.43,0,0,0-4.28-.08,3.59,3.59,0,0,0-2.38,2.26,3.33,3.33,0,0,0,.63,3.24,19.18,19.18,0,0,0,4.69,3.75q8.91,5.06,11.68,9.78c1.86,3.14,2.13,6.73.84,10.77a12.06,12.06,0,0,1-6.76,7.75q-5,2.18-12.27.56L239.67,548l-6.14-2,2.77-8.62q-7.61-3.17-10.84-8.58A13.82,13.82,0,0,1,224.29,517l13,4.17c-.73,2.3-.66,4.1.23,5.41s2.74,2.39,5.52,3.29a5.89,5.89,0,0,0,4,.11A3.59,3.59,0,0,0,249.22,527.56Z"/><rect width="154.94" height="7.95" x="422.9" y="349.17" fill="#dfeafe"/><rect width="147.62" height="12.63" x="427.32" y="337.75" fill="#101e41"/><path fill="#fb660a" d="M572.36,293.69a71.23,71.23,0,1,1-71.23-71.23A71.23,71.23,0,0,1,572.36,293.69Z"/><path fill="#fea815" d="M563.17,293.69a62,62,0,1,1-62-62A62,62,0,0,1,563.17,293.69Z"/><path fill="#fb660a" d="M512.08,310.06a6.2,6.2,0,0,0-2.89-5.33q-2.88-2-10.13-3.7a94.83,94.83,0,0,1-12.17-3.58,29.45,29.45,0,0,1-8.12-4.48,15.78,15.78,0,0,1-4.71-6.24,23.08,23.08,0,0,1-1.5-8.79,19,19,0,0,1,7-14.93q7-6,18.07-6.9V242.5h10v13.86q11.73,1.51,18.16,7.41a19.58,19.58,0,0,1,6.44,15.11H511a7.5,7.5,0,0,0-2.79-5.83,10.32,10.32,0,0,0-7.06-2.45,10.1,10.1,0,0,0-6.4,1.92,5.58,5.58,0,0,0-2.44,4.48,5.22,5.22,0,0,0,2.48,4.52q2.47,1.69,8.75,3.32,15.62,3.27,22,8.94t6.37,15.59a18.71,18.71,0,0,1-6.33,14.71q-6.35,5.61-18,6.68v14.12h-10V330.76q-12.79-1.06-20.17-7.55t-7.37-17h21.26c0,3.76,1,6.4,2.92,7.9s5.2,2.26,9.76,2.26a9.26,9.26,0,0,0,6-1.73A5.62,5.62,0,0,0,512.08,310.06Z"/><rect width="165.29" height="12.63" x="418.48" y="355.72" fill="#101e41"/><polygon fill="#101e41" points="427.32 337.75 418.48 355.72 418.48 368.35 427.32 350.38 427.32 337.75"/><polygon fill="#101e41" points="574.94 337.75 583.78 355.72 583.78 368.35 574.94 350.38 574.94 337.75"/><path fill="#fea815" d="M763.34,543c23.61,0,42.76-4.47,42.76-9.06v10.56c0,4.58-19.15,9.07-42.76,9.07s-42.75-4.49-42.76-9.07V533.93C720.58,538.52,739.72,543,763.34,543Z"/><path fill="#fea815" d="M768.27,526.38c23.62,0,42.76-4.47,42.76-9v10.56c0,4.58-19.15,9.06-42.76,9.06s-42.74-4.48-42.76-9.06V517.33C725.51,521.91,744.66,526.38,768.27,526.38Z"/><path fill="#fea815" d="M758.41,509.78c23.61,0,42.76-4.48,42.76-9.06v10.56c0,4.58-19.15,9.06-42.76,9.06s-42.75-4.48-42.76-9.06V500.72C715.65,505.3,734.79,509.78,758.41,509.78Z"/><path fill="#f49206" d="M768.27,475.05c23.62,0,42.76,3.16,42.76,7.75s-19.14,8.86-42.76,8.86-42.76-4.28-42.76-8.86S744.66,475.05,768.27,475.05Z"/><path fill="#fea815" d="M768.27,491.66c23.62,0,42.76-4.47,42.76-9.06v10.56c0,4.59-19.15,9.07-42.76,9.07s-42.74-4.48-42.76-9.07V482.6C725.51,487.19,744.66,491.66,768.27,491.66Z"/><path fill="#fb660a" d="M735.38 498.78c-1.19-.31-2.29-.64-3.29-1V487.24c1 .34 2.1.67 3.29 1zM743.6 500.45c-1.14-.18-2.23-.37-3.28-.57V489.31c1 .2 2.14.39 3.28.57zM751.83 501.47c-1.13-.1-2.22-.22-3.29-.35V490.56c1.07.13 2.16.24 3.29.35zM760.05 502c-1.11-.05-2.21-.11-3.29-.18V491.3c1.08.07 2.18.13 3.29.18zM725.51 516.89c-1.19-.31-2.29-.63-3.29-1V505.36c1 .34 2.1.66 3.29 1zM733.74 518.56c-1.14-.18-2.24-.37-3.29-.57V507.43c1 .2 2.15.39 3.29.57zM742 519.59l-3.29-.35V508.67c1.07.13 2.17.25 3.29.35zM750.18 520.16c-1.11 0-2.21-.11-3.29-.18V509.41c1.08.07 2.18.13 3.29.18zM760.05 509.77v10.56h-3.29V509.77h3.29zM735.38 533.5c-1.19-.31-2.29-.64-3.29-1V522c1 .34 2.1.67 3.29 1zM743.6 535.17c-1.14-.18-2.23-.37-3.28-.57V524c1 .21 2.14.39 3.28.57zM751.83 536.19c-1.13-.1-2.22-.22-3.29-.35V525.28c1.07.13 2.16.25 3.29.35zM760.05 536.77c-1.11 0-2.21-.12-3.29-.19V526c1.08.07 2.18.13 3.29.18zM730.45 550.11c-1.2-.32-2.29-.64-3.29-1V538.57c1 .34 2.09.66 3.29 1zM738.67 551.78c-1.14-.18-2.24-.38-3.29-.58V540.64c1 .2 2.15.39 3.29.57zM746.89 552.8c-1.12-.11-2.21-.22-3.29-.35V541.89c1.08.12 2.17.24 3.29.34zM755.12 553.37c-1.12 0-2.21-.11-3.29-.18V542.62c1.08.07 2.17.13 3.29.18zM765 543v10.57H761.7V543H765z"/><path fill="#f49206" d="M726.81 530c4.67 3.77 21.46 7 41.46 7 15.65 0 29.32-2 36.77-4.63a2.44 2.44 0 011.06 1.81c0 4.58-19.15 8.86-42.76 8.86s-42.76-4.28-42.76-8.86C720.58 532.55 722.86 531.13 726.81 530zM758.41 520.34c21.73 0 39.66-3.79 42.39-8 6.37 1.32 10.23 3.09 10.23 5.15 0 4.58-19.14 8.86-42.76 8.86s-42.76-4.28-42.76-8.86a1.62 1.62 0 01.13-.6C733.48 519 745.25 520.34 758.41 520.34zM727.17 495.51c5.12 3.65 21.58 6.72 41.1 6.72 12.61 0 24-1.28 31.78-3.17a2.52 2.52 0 011.12 1.85c0 4.59-19.15 8.87-42.76 8.87s-42.76-4.28-42.76-8.87C715.65 498.72 720 496.86 727.17 495.51z"/><path fill="#fb660a" d="M804.46 497.8c-1 .34-2.1.67-3.29 1V488.22c1.19-.31 2.29-.64 3.29-1zM796.23 499.88c-1.05.2-2.15.39-3.29.57V489.88c1.14-.18 2.24-.37 3.29-.57zM788 501.12c-1.07.13-2.17.25-3.29.35V490.91l3.29-.35zM779.79 501.86c-1.08.07-2.18.13-3.29.18V491.48c1.11-.05 2.21-.11 3.29-.18zM769.92 491.65v10.57h-3.29V491.65h3.29zM794.59 515.92c-1 .34-2.1.66-3.29 1V506.33c1.19-.31 2.29-.64 3.29-1zM786.37 518c-1.06.2-2.16.39-3.29.57V508c1.13-.18 2.23-.37 3.29-.57zM778.14 519.24c-1.07.13-2.16.24-3.29.35V509c1.13-.1 2.22-.22 3.29-.35zM769.92 520c-1.08.07-2.18.13-3.29.18V509.59c1.11 0 2.21-.11 3.29-.18zM804.46 532.52c-1 .34-2.1.67-3.29 1V522.94c1.19-.31 2.29-.64 3.29-1zM796.23 534.6c-1.05.2-2.15.39-3.29.57V524.6c1.14-.18 2.24-.36 3.29-.57zM788 535.84c-1.07.13-2.17.25-3.29.35V525.63c1.12-.11 2.22-.22 3.29-.35zM779.79 536.58c-1.08.07-2.18.14-3.29.19V526.2c1.11-.05 2.21-.11 3.29-.18zM769.92 526.37v10.57h-3.29V526.37h3.29zM799.52 549.13c-1 .34-2.09.66-3.29 1V539.54c1.2-.31 2.29-.63 3.29-1zM791.3 551.2c-1 .2-2.15.4-3.29.57V541.21c1.14-.18 2.24-.37 3.29-.57zM783.08 552.45c-1.08.13-2.17.25-3.29.35V542.24l3.29-.35zM774.85 553.19c-1.08.07-2.17.13-3.29.18V542.8c1.12 0 2.21-.11 3.29-.18z"/><path fill="#23399b" d="M677.51,475.7c-16.57,0-32-7.17-43.41-20.19a71.69,71.69,0,0,1,0-92.49c11.43-13,26.84-20.19,43.41-20.19s32,7.17,43.41,20.19a71.69,71.69,0,0,1,0,92.49C709.5,468.53,694.08,475.7,677.51,475.7Zm0-121.32c-25.44,0-46.14,24.62-46.14,54.89s20.7,54.88,46.14,54.88,46.15-24.62,46.15-54.88S703,354.38,677.51,354.38Z"/><rect width="161.79" height="161.79" x="596.62" y="403.36" fill="#608fdf" rx="17.32"/><path fill="#dfeafe" d="M621.21 463.91h0a7.74 7.74 0 01-7.72-7.71v-17a7.74 7.74 0 017.72-7.71h0a7.73 7.73 0 017.71 7.71v17A7.73 7.73 0 01621.21 463.91zM621.21 547h0a7.74 7.74 0 01-7.72-7.71V481.07a7.74 7.74 0 017.72-7.72h0a7.74 7.74 0 017.71 7.72v58.25A7.73 7.73 0 01621.21 547z"/><path fill="#23399b" d="M703.44,471.46a25.93,25.93,0,1,0-33.28,24.86L661,533.09h33l-9.18-36.77A25.93,25.93,0,0,0,703.44,471.46Z"/><rect width="187.8" height="153.66" x="393.44" y="409.72" fill="#23399b" rx="5.01"/><rect width="181.01" height="146.18" x="396.94" y="413.53" fill="#101e41" rx="8.2"/><rect width="54.09" height="108.85" x="410.47" y="355.4" fill="#fea815" transform="rotate(-15.88 437.432 409.774)"/><path fill="#fb660a" d="M467.14,440.61l-20.63-72.56a9.57,9.57,0,0,1-11.82-6.58l-20.22,5.75A9.55,9.55,0,0,1,407.89,379l20.64,72.56a9.57,9.57,0,0,1,11.82,6.58l20.21-5.75A9.56,9.56,0,0,1,467.14,440.61Zm-25.36-15.8a15.58,15.58,0,1,1,10.72-19.25A15.59,15.59,0,0,1,441.78,424.81Z"/><rect width="54.09" height="108.84" x="440.1" y="361.61" fill="#fea815" transform="rotate(-15.88 467.05 415.952)"/><path fill="#fb660a" d="M496.77,446.82l-20.64-72.56a9.55,9.55,0,0,1-11.81-6.58l-20.22,5.75a9.56,9.56,0,0,1-6.58,11.81l20.64,72.56A9.56,9.56,0,0,1,470,464.38l20.22-5.75A9.55,9.55,0,0,1,496.77,446.82ZM471.41,431a15.58,15.58,0,1,1,10.72-19.25A15.58,15.58,0,0,1,471.41,431Z"/><rect width="54.09" height="108.85" x="468.69" y="370.98" fill="#fea815" transform="matrix(.96 -.27 .27 .96 -97.47 151.85)"/><path fill="#fb660a" d="M525.36,456.19l-20.63-72.56a9.57,9.57,0,0,1-11.82-6.58L472.7,382.8a9.58,9.58,0,0,1-6.59,11.82l20.64,72.56a9.57,9.57,0,0,1,11.82,6.58L518.78,468A9.57,9.57,0,0,1,525.36,456.19ZM500,440.39a15.58,15.58,0,1,1,10.72-19.25A15.58,15.58,0,0,1,500,440.39Z"/><rect width="181.01" height="146.18" x="393.44" y="417.19" fill="#3251b4" rx="4.8"/><path fill="#fff" d="M567.81 558.52h-4.68a1.1 1.1 0 010-2.2h2.48v-2.48a1.1 1.1 0 112.2 0zM555.85 558.52h-7.28a1.1 1.1 0 010-2.2h7.28a1.1 1.1 0 110 2.2zm-14.56 0H534a1.1 1.1 0 010-2.2h7.27a1.1 1.1 0 110 2.2zm-14.55 0h-7.28a1.1 1.1 0 110-2.2h7.28a1.1 1.1 0 110 2.2zm-14.56 0H504.9a1.1 1.1 0 110-2.2h7.28a1.1 1.1 0 110 2.2zm-14.55 0h-7.28a1.1 1.1 0 010-2.2h7.28a1.1 1.1 0 010 2.2zm-14.56 0h-7.28a1.1 1.1 0 010-2.2h7.28a1.1 1.1 0 110 2.2zm-14.56 0h-7.27a1.1 1.1 0 010-2.2h7.27a1.1 1.1 0 110 2.2zm-14.55 0h-7.28a1.1 1.1 0 010-2.2H454a1.1 1.1 0 010 2.2zm-14.56 0h-7.28a1.1 1.1 0 010-2.2h7.28a1.1 1.1 0 010 2.2zm-14.55 0h-7.28a1.1 1.1 0 110-2.2h7.28a1.1 1.1 0 110 2.2zm-14.56 0H403a1.1 1.1 0 110-2.2h7.28a1.1 1.1 0 110 2.2zM555.85 424.24h-7.28a1.1 1.1 0 110-2.19h7.28a1.1 1.1 0 110 2.19zm-14.56 0H534a1.1 1.1 0 110-2.19h7.28a1.1 1.1 0 110 2.19zm-14.55 0h-7.28a1.1 1.1 0 110-2.19h7.28a1.1 1.1 0 010 2.19zm-14.56 0H504.9a1.1 1.1 0 110-2.19h7.28a1.1 1.1 0 110 2.19zm-14.55 0h-7.28a1.1 1.1 0 110-2.19h7.28a1.1 1.1 0 010 2.19zm-14.56 0h-7.28a1.1 1.1 0 110-2.19h7.28a1.1 1.1 0 110 2.19zm-14.56 0h-7.27a1.1 1.1 0 110-2.19h7.27a1.1 1.1 0 110 2.19zm-14.55 0h-7.28a1.1 1.1 0 110-2.19H454a1.1 1.1 0 110 2.19zm-14.56 0h-7.28a1.1 1.1 0 110-2.19h7.28a1.1 1.1 0 110 2.19zm-14.55 0h-7.28a1.1 1.1 0 110-2.19h7.28a1.1 1.1 0 010 2.19zm-14.56 0H403a1.1 1.1 0 110-2.19h7.28a1.1 1.1 0 110 2.19zM566.71 427.83a1.1 1.1 0 01-1.1-1.1v-2.49h-2.48a1.1 1.1 0 110-2.19h4.68v4.68A1.1 1.1 0 01566.71 427.83zM566.71 547.46a1.1 1.1 0 01-1.1-1.1v-7.48a1.1 1.1 0 012.2 0v7.48A1.1 1.1 0 01566.71 547.46zm0-15a1.1 1.1 0 01-1.1-1.1v-7.48a1.1 1.1 0 012.2 0v7.48A1.1 1.1 0 01566.71 532.51zm0-15a1.1 1.1 0 01-1.1-1.1V509a1.1 1.1 0 012.2 0v7.48A1.1 1.1 0 01566.71 517.55zm0-14.95a1.1 1.1 0 01-1.1-1.1V494a1.1 1.1 0 112.2 0v7.48A1.1 1.1 0 01566.71 502.6zm0-15a1.1 1.1 0 01-1.1-1.1v-7.47a1.1 1.1 0 112.2 0v7.47A1.1 1.1 0 01566.71 487.64zm0-14.95a1.1 1.1 0 01-1.1-1.1v-7.48a1.1 1.1 0 012.2 0v7.48A1.1 1.1 0 01566.71 472.69zm0-14.95a1.1 1.1 0 01-1.1-1.1v-7.48a1.1 1.1 0 012.2 0v7.48A1.1 1.1 0 01566.71 457.74zm0-15a1.1 1.1 0 01-1.1-1.1v-7.47a1.1 1.1 0 112.2 0v7.47A1.1 1.1 0 01566.71 442.78z"/><path fill="#23399b" d="M524.5,472.86H581.6a0,0,0,0,1,0,0v27.52a0,0,0,0,1,0,0H524.5a3.44,3.44,0,0,1-3.44-3.44V476.3A3.44,3.44,0,0,1,524.5,472.86Z"/><path fill="#fff" d="M579 499.05h-4.84a.6.6 0 010-1.2H579a.6.6 0 110 1.2zm-9.68 0h-4.83a.6.6 0 110-1.2h4.83a.6.6 0 110 1.2zm-9.67 0h-4.83a.6.6 0 010-1.2h4.83a.6.6 0 110 1.2zm-9.67 0h-4.84a.6.6 0 010-1.2H550a.6.6 0 110 1.2zm-9.67 0h-4.84a.6.6 0 010-1.2h4.84a.6.6 0 010 1.2zm-9.68 0h-2.1a5.82 5.82 0 01-2.91-.78.6.6 0 11.6-1 4.66 4.66 0 002.31.61h2.1a.6.6 0 110 1.2zm-7.32-4.57a.6.6 0 01-.59-.52 6.53 6.53 0 01-.05-.78v-4.13a.6.6 0 111.19 0v4.13c0 .21 0 .42 0 .62a.58.58 0 01-.51.67zm0-9.67a.6.6 0 01-.59-.6v-4.16a6.33 6.33 0 01.05-.76.63.63 0 01.67-.51.6.6 0 01.51.67 4 4 0 000 .6v4.16A.6.6 0 01523.25 484.81zm2.63-8.72a.6.6 0 01-.29-1.12 5.87 5.87 0 012.93-.78h2.08a.59.59 0 01.59.59.6.6 0 01-.59.6h-2.08a4.69 4.69 0 00-2.34.63A.61.61 0 01525.88 476.09zm53.08-.71h-4.84a.6.6 0 01-.59-.6.59.59 0 01.59-.59H579a.59.59 0 01.6.59A.6.6 0 01579 475.38zm-9.67 0h-4.84a.6.6 0 01-.6-.6.59.59 0 01.6-.59h4.84a.58.58 0 01.59.59A.59.59 0 01569.29 475.38zm-9.68 0h-4.83a.6.6 0 01-.6-.6.59.59 0 01.6-.59h4.83a.59.59 0 01.6.59A.6.6 0 01559.61 475.38zm-9.67 0h-4.83a.6.6 0 01-.6-.6.59.59 0 01.6-.59h4.83a.59.59 0 01.6.59A.6.6 0 01549.94 475.38zm-9.67 0h-4.84a.6.6 0 01-.6-.6.59.59 0 01.6-.59h4.84a.59.59 0 01.6.59A.6.6 0 01540.27 475.38zM540.89 486.62a6.58 6.58 0 11-6.58-6.58A6.57 6.57 0 01540.89 486.62z"/><circle cx="534.31" cy="486.62" r="5.8" fill="#23399b"/><path fill="#fff" d="M539.47,486.62a5.16,5.16,0,1,1-5.16-5.16A5.16,5.16,0,0,1,539.47,486.62Z"/><path fill="#ffc8b7" d="M783.2,370.71c0-1.87-2.35-3.21-5.1-5.82s-1.24-6.2-3.12-8.21-4.23-6-7.58-4.78-7.17,7.77-.9,11.55,4.31,6.56,6.16,8.11,8,1.88,8,1.88Z"/><path fill="#3251b4" d="M779.34,366s-6,3.36-5.24,6.3,31.58,17,35.82,17.2c9.71.51,15.11-2.44,11.91-8-4.56-7.92-14.56-5.52-19.06-6S780.21,367.39,779.34,366Z"/><path fill="#23399b" d="M880.68,583.08s7.45,9.71,15.24,6.81,11.46-3.15,10.84-8c-1-7.7-5.12-5.66-7.49-10.72a100.73,100.73,0,0,0-6.85-11.56L877.29,564a1.74,1.74,0,0,0-1.2,2.16Z"/><path fill="#dfeafe" d="M880.22,581.39s6.68,7.45,14.27,4.75,10.84-3,10.69-7.06-3.77-4.16-5.85-8.3-5.49-9.86-5.49-9.86l-17.93,4.73Z"/><path fill="#23399b" d="M813.93,583s-6.71,10.24-14.7,7.92-11.66-2.28-11.4-7.16c.41-7.76,4.69-6,6.67-11.25a100.5,100.5,0,0,1,6-12l15.41,3.26a1.76,1.76,0,0,1,1.36,2.07Z"/><path fill="#dfeafe" d="M814.26,581.31s-6.11,7.93-13.88,5.81-11-2.19-11.19-6.25,3.46-4.43,5.23-8.72,4.74-10.23,4.74-10.23l18.23,3.38Z"/><path fill="#3251b4" d="M829,414.47,798.4,562.59s3.45,6.52,10.71,7.42,7.61-.28,7.61-.28L851.09,458.6l23.63,106.62s16.26,12.29,21.12-.4L884.75,412.4Z"/><path fill="#23399b" d="M851.09 458.6s0-3.3.15-6.71c.1-2 3.91-6.74 3.87-8.23A95.46 95.46 0 00858 464.23c2.17 8.72 5.37 17.17 8.47 25.63 9.21 25.12 19 53.41 26.54 79.06-.53.39-1.92 3.66-10.74.45a34.41 34.41 0 01-7.58-4.15zM798.4 562.59L829 414.47l9.44-.35c-.37.94-.76 1.88-1 2.77-2.53 8.47-2.92 17.37-4 26.07-1.55 12-4.48 23.85-7.4 35.64q-11.07 44.76-22.16 89.52A16.26 16.26 0 01798.4 562.59z"/><path fill="#3251b4" d="M822,397.32a5.61,5.61,0,0,1-3.53,1.52l-4.82.28c-13.2-1.77-4.07-8.14-3.62-13l12.56-43.27a23.42,23.42,0,0,1,4.79-8.92c2.1-2.4,4.13-3.65,7.55-5.61h8.61c5.32.49,3.65,7.62,3.2,12.5l-12.93,41.67C833.38,386.93,827.15,392.47,822,397.32Z"/><rect width="54.09" height="108.85" x="738.24" y="299.83" fill="#fea815" transform="rotate(-50.61 765.207 354.25)"/><path fill="#fb660a" d="M807.17,362.68l-58.3-47.88a9.57,9.57,0,0,1-13.46,1.32l-13.34,16.24a9.56,9.56,0,0,1,1.33,13.46l58.29,47.88a9.57,9.57,0,0,1,13.46-1.32l13.34-16.24A9.57,9.57,0,0,1,807.17,362.68Zm-29.85,1.46a15.58,15.58,0,1,1-2.15-21.93A15.57,15.57,0,0,1,777.32,364.14Z"/><path fill="#ffc8b7" d="M875.19,297.12c-4.16,12.25-15.85,19.36-26.1,15.87s-15.18-16.24-11-28.49,15.85-19.36,26.1-15.88S879.36,284.86,875.19,297.12Z"/><rect width="12.17" height="15.37" x="856.64" y="305.99" fill="#ffc8b7"/><path fill="#fff" d="M881.83,396.92V358.28c0-14.71-.62-25.91-4.25-31.2a6.1,6.1,0,0,0-3.64-3.55c-5.23-2.11-5.13-6.14-5.13-6.14-4.41,2.41-12.17-.73-12.17-.73-1.31,7-12.09,8.25-12.09,8.25l-.07.14a27.12,27.12,0,0,0-4.3.89c-17.89,5.34-11.09,19.56-10.66,32.8l-2.22,32.63c0,14.66-10.83,38.84,3.84,38.84l16.86-.38c14.46,0,27.32,2.52,37.35-5.38C888.94,421.63,882.44,408.73,881.83,396.92Z"/><path fill="#b3cbf9" d="M881.83,358.28c0-2.65,0-.89,0-3.29-11.62,23.82-14.14,49.26-9.51,74.72,4.73-.67,9.63-1.58,13.57-4.68,3.58-2.82-3.44-16.3-4-28.11Z"/><path fill="#fff" d="M866.55,334c1.5-4,3.35-7.92,5.07-11.79-2.82-2.39-2.81-4.86-2.81-4.86-4.52,2.2-12.17-.73-12.17-.73-1.31,7-12.36,8.25-12.36,8.25l-.08.14a27.59,27.59,0,0,0-4.3.89c-17.89,5.34-11.08,19.56-10.65,32.8L827,391.37c0,14.66-10.82,38.84,3.84,38.84l16.86-.38c1,0,2.1,0,3.13,0,2.62-10.47,2.23-21.5,2.67-32.32A203.45,203.45,0,0,1,866.55,334Z"/><path fill="#b3cbf9" d="M824.35,398.85l-1.82-3.31c-4.12-3.4-.66-9.86,2.74-14L863.7,343.8c3.4-4.12,10.8-19.24,14.92-15.84l6,5c4.12,3.41-1.26,15-4.66,19.12l-34.76,36.11C841.81,392.35,828.47,402.25,824.35,398.85Z"/><path fill="#ffc8b7" d="M785.76,384.88c-.47-1.81-3-2.57-6.33-4.44s-2.69-5.74-5-7.24-5.52-4.8-8.5-2.85-5.11,9.25,1.87,11.43,5.74,5.35,7.91,6.43,8.17-.07,8.17-.07Z"/><path fill="#b3cbf9" d="M785.29,383.07s-4.44,2.78-2.8,5.8,38.08,12.31,42.77,11.43c10.77-2,15.89-6.69,10.88-12-7.13-7.48-17.44-2.19-22.49-1.56S786.61,384.34,785.29,383.07Z"/><path fill="#23399b" d="M861.65 302.8s-7.74 5.4-16.18 4.32c-5.8-.73-8.34-8.6-8.34-8.6l-7.5 17.34a6.51 6.51 0 003.5 8.71c4.39 1.75 10.23 3.43 14.34 2.16 7.42-2.3 10.67-6.66 10.67-6.66S866.34 308.41 861.65 302.8zM866.29 298.52s3.38-2.16 2.92-3.92-1.83-6.11 1.28-7.18 5.41 2.18 4.1 5.65c0 0 .06 2.8 2.77.26s12.74-11.71 8.14-21.51-15.3-5.14-21.52-7.49-13.79-3.9-13.77-11.95-13.44-10.51-16.85-8.23-7.93 9.8-7.45 16.75c1.14 16.49 8.73 19.56 17.76 22.71s15.45 1.36 18.39 4.59S866.29 298.52 866.29 298.52z"/></g></svg>